Coordinates
version=1
nRows=32
nColumns=12
inDegrees=yes

Units are S.I. units (second, meters, Newtons, ...)
Angles are in degrees

endheader
time	SC_y	SC_z	SC_x	AC_y	AC_z	AC_x	GH_y	GH_z	GH_yy	EL_x	PS_y
       0.0              -52.99          37.63           57.9          57.31         -13.82         -13.38         -146.6          60.94          50.83          88.84          145.8
  0.000641              -52.99          37.63           57.9          57.31         -13.82         -13.38         -146.6          60.93          50.84          88.83          145.8
  0.001282              -52.98          37.63           57.9          57.31         -13.82         -13.38         -146.5          60.93          50.86          88.82          145.8
  0.001923              -52.98          37.63          57.89          57.31         -13.81         -13.38         -146.5          60.92          50.87          88.81          145.8
  0.002564              -52.98          37.63          57.89          57.31         -13.81         -13.38         -146.5          60.91          50.89           88.8          145.8
  0.003205              -52.98          37.63          57.89          57.31          -13.8         -13.38         -146.4          60.91           50.9          88.78          145.8
  0.003846              -52.97          37.63          57.88          57.31          -13.8         -13.38         -146.4           60.9          50.92          88.77          145.8
  0.004487              -52.97          37.62          57.88          57.31          -13.8         -13.38         -146.4          60.89          50.94          88.75          145.8
  0.005128              -52.97          37.62          57.88          57.32         -13.79         -13.38         -146.3          60.88          50.96          88.74          145.8
  0.005769              -52.96          37.62          57.87          57.32         -13.79         -13.38         -146.3          60.88          50.98          88.72          145.8
   0.00641              -52.96          37.62          57.87          57.32         -13.78         -13.38         -146.2          60.87          51.01           88.7          145.8
  0.007051              -52.95          37.62          57.87          57.32         -13.78         -13.38         -146.2          60.86          51.03          88.68          145.8
  0.007692              -52.95          37.61          57.86          57.32         -13.77         -13.38         -146.1          60.85          51.06          88.66          145.8
  0.008333              -52.94          37.61          57.86          57.33         -13.76         -13.38         -146.1          60.83          51.09          88.63          145.8
  0.008974              -52.94          37.61          57.85          57.33         -13.76         -13.38         -146.0          60.82          51.12          88.61          145.8
  0.009615              -52.93          37.61          57.84          57.33         -13.75         -13.38         -145.9          60.81          51.16          88.58          145.8
   0.01026              -52.93           37.6          57.84          57.33         -13.74         -13.38         -145.9          60.79          51.19          88.55          145.8
    0.0109              -52.92           37.6          57.83          57.34         -13.73         -13.38         -145.8          60.78          51.23          88.51          145.9
   0.01154              -52.91           37.6          57.82          57.34         -13.72         -13.38         -145.7          60.76          51.28          88.48          145.9
   0.01218               -52.9          37.59          57.81          57.34         -13.71         -13.37         -145.6          60.74          51.33          88.44          145.9
   0.01282               -52.9          37.59          57.81          57.35          -13.7         -13.37         -145.5          60.72          51.38          88.39          145.9
   0.01346              -52.89          37.58           57.8          57.35         -13.69         -13.37         -145.4           60.7          51.44          88.35          145.9
    0.0141              -52.87          37.58          57.78          57.36         -13.67         -13.37         -145.3          60.67          51.51          88.29          145.9
   0.01474              -52.86          37.57          57.77          57.36         -13.65         -13.37         -145.1          60.64          51.58          88.23          145.9
   0.01538              -52.85          37.56          57.76          57.37         -13.64         -13.37         -145.0          60.61          51.66          88.17          145.9
   0.01602              -52.83          37.56          57.74          57.37         -13.62         -13.37         -144.8          60.58          51.75           88.1          145.9
   0.01667              -52.82          37.55          57.72          57.38         -13.59         -13.37         -144.6          60.54          51.85          88.01          145.9
   0.01731               -52.8          37.54           57.7          57.39         -13.57         -13.37         -144.4          60.49          51.96          87.92          145.9
   0.01795              -52.78          37.53          57.68           57.4         -13.54         -13.37         -144.1          60.44          52.09          87.82          146.0
   0.01859              -52.75          37.51          57.66          57.41         -13.51         -13.37         -143.8          60.38          52.24           87.7          146.0
   0.01923              -52.72           37.5          57.63          57.42         -13.47         -13.36         -143.5          60.32           52.4          87.56          146.0
   0.01987              -52.69          37.48           57.6          57.43         -13.43         -13.36         -143.1          60.24          52.59          87.41          146.0
